<?xml version="1.0" encoding="UTF-8" standalone="no"?>
<!-- Created with Inkscape (http://www.inkscape.org/) -->

<svg
   xmlns:dc="http://purl.org/dc/elements/1.1/"
   xmlns:cc="http://creativecommons.org/ns#"
   xmlns:rdf="http://www.w3.org/1999/02/22-rdf-syntax-ns#"
   xmlns:svg="http://www.w3.org/2000/svg"
   xmlns="http://www.w3.org/2000/svg"
   xmlns:sodipodi="http://sodipodi.sourceforge.net/DTD/sodipodi-0.dtd"
   xmlns:inkscape="http://www.inkscape.org/namespaces/inkscape"
   width="100.5824mm"
   height="34.11935mm"
   viewBox="0 0 100.5824 34.11935"
   version="1.1"
   id="svg8"
   inkscape:version="0.92.4 (5da689c313, 2019-01-14)"
   sodipodi:docname="awx-rpm-logo.svg">
  <defs
     id="defs2" />
  <sodipodi:namedview
     id="base"
     pagecolor="#ffffff"
     bordercolor="#666666"
     borderopacity="1.0"
     inkscape:pageopacity="0.0"
     inkscape:pageshadow="2"
     inkscape:zoom="2.8"
     inkscape:cx="73.575528"
     inkscape:cy="-120.93356"
     inkscape:document-units="mm"
     inkscape:current-layer="layer1"
     showgrid="false"
     inkscape:window-width="3840"
     inkscape:window-height="2097"
     inkscape:window-x="-8"
     inkscape:window-y="-8"
     inkscape:window-maximized="1" />
  <metadata
     id="metadata5">
    <rdf:RDF>
      <cc:Work
         rdf:about="">
        <dc:format>image/svg+xml</dc:format>
        <dc:type
           rdf:resource="http://purl.org/dc/dcmitype/StillImage" />
        <dc:title></dc:title>
      </cc:Work>
    </rdf:RDF>
  </metadata>
  <g
     inkscape:label="Layer 1"
     inkscape:groupmode="layer"
     id="layer1"
     transform="translate(-38.933633,-156.05163)">
    <g
       aria-label="AWX-RPM"
       style="font-style:normal;font-variant:normal;font-weight:normal;font-stretch:normal;font-size:10.58333302px;line-height:1.25;font-family:'Snap ITC';-inkscape-font-specification:'Snap ITC';letter-spacing:0px;word-spacing:0px;fill:#000000;fill-opacity:1;stroke:none;stroke-width:0.26458332"
       id="text12">
      <path
         d="m 83.416099,173.7554 -0.718302,-2.06189 -0.697632,2.54248 z m 4.170288,2.96622 -4.506184,1.39527 1.152384,-1.54513 -0.325562,-1.14205 -1.674316,0.12919 -0.485758,1.33326 0.728637,0.56844 -4.898925,0.3514 1.193725,-0.88884 1.586467,-6.17016 -0.89917,-0.58395 6.077148,0.20154 -1.415934,0.50643 2.485636,5.55005 z"
         style="font-style:normal;font-variant:normal;font-weight:normal;font-stretch:normal;font-family:'Snap ITC';-inkscape-font-specification:'Snap ITC';stroke-width:0.26458332"
         id="path118" />
      <path
         d="m 98.484946,170.95453 -1.049032,0.48576 -1.927531,5.68441 1.431438,0.3669 -3.979086,0.74414 -1.188557,-3.04891 -1.214397,2.72852 -3.079915,-0.16537 1.049032,-0.43408 -0.837158,-6.09782 -0.950847,-0.44441 5.384684,-0.47543 -1.240234,0.75965 -0.759644,4.54236 2.475301,-3.61219 1.586467,3.57084 0.232544,-4.39249 -1.064535,-0.55294 z"
         style="font-style:normal;font-variant:normal;font-weight:normal;font-stretch:normal;font-family:'Snap ITC';-inkscape-font-specification:'Snap ITC';stroke-width:0.26458332"
         id="path120" />
      <path
         d="m 107.50248,170.85635 -0.91984,0.31006 -2.97139,2.67684 2.4753,3.3538 1.05937,0.49609 -4.33049,0.55294 0.74931,-0.4961 -1.54513,-2.682 -1.02319,2.28926 0.44442,0.48576 -4.128948,-0.43408 0.707967,-0.39274 2.775021,-3.26078 -1.596799,-2.69751 -1.100708,-0.47543 4.526857,-0.3514 -0.73897,0.65629 0.96118,2.00505 1.04903,-1.89652 -0.70797,-0.48576 z"
         style="font-style:normal;font-variant:normal;font-weight:normal;font-stretch:normal;font-family:'Snap ITC';-inkscape-font-specification:'Snap ITC';stroke-width:0.26458332"
         id="path122" />
      <path
         d="m 110.02171,173.39883 -0.13953,1.58647 -2.84737,0.55293 -0.32556,-2.20141 z"
         style="font-style:normal;font-variant:normal;font-weight:normal;font-stretch:normal;font-family:'Snap ITC';-inkscape-font-specification:'Snap ITC';stroke-width:0.26458332"
         id="path124" />
      <path
         d="m 113.53312,173.81224 q 0.17053,0.093 0.35657,0.14986 0.18603,0.0517 0.34106,0.0517 0.21704,0 0.38241,-0.24288 0.17053,-0.24288 0.17053,-0.55294 0,-0.3824 -0.25321,-0.67179 -0.25322,-0.28939 -0.79582,-0.52193 z m 5.45187,3.59668 -3.46233,1.16272 0.41342,-0.78031 -1.95854,-2.38229 q -0.11886,-0.0103 -0.24805,-0.031 -0.12402,-0.0258 -0.25838,-0.0517 l 0.14986,1.83968 1.16272,1.02836 -4.37182,-0.49092 0.72863,-0.51677 0.75448,-5.6534 -1.63298,-0.70797 3.96875,-0.45475 q 0.45476,-0.0568 0.78032,-0.0775 0.32556,-0.0258 0.57877,-0.0258 1.57097,0 2.38229,0.64595 0.81132,0.64079 0.81132,1.89136 0,1.0387 -0.69247,1.69499 -0.69246,0.65112 -2.05672,0.89917 z"
         style="font-style:normal;font-variant:normal;font-weight:normal;font-stretch:normal;font-family:'Snap ITC';-inkscape-font-specification:'Snap ITC';stroke-width:0.26458332"
         id="path126" />
      <path
         d="m 122.0494,173.70372 q 0.69763,-0.29456 1.13171,-0.80615 0.43408,-0.51677 0.43408,-1.01286 0,-0.28939 -0.10852,-0.42375 -0.10852,-0.13952 -0.33589,-0.13952 -0.15503,0 -0.30489,0.0465 -0.14987,0.0465 -0.34107,0.15502 z m -3.10576,-2.87838 3.96875,-0.45475 q 0.55811,-0.062 0.82166,-0.0827 0.26355,-0.0207 0.41858,-0.0207 1.57613,0 2.44429,0.79065 0.86817,0.79065 0.86817,2.22208 0,1.28675 -0.79065,2.08773 -0.79065,0.80099 -2.05672,0.80099 -0.71831,0 -1.31775,-0.21188 -0.59945,-0.21704 -1.01803,-0.63045 l 0.32556,1.83968 1.69499,1.02836 -5.20898,-0.49092 0.72863,-0.51677 0.75448,-5.6534 z"
         style="font-style:normal;font-variant:normal;font-weight:normal;font-stretch:normal;font-family:'Snap ITC';-inkscape-font-specification:'Snap ITC';stroke-width:0.26458332"
         id="path128" />
      <path
         d="m 139.51603,177.73965 -6.22184,-0.22221 1.13171,-0.63562 0.99219,-4.59403 -2.30477,3.79821 -1.9792,-4.24263 0.79065,5.51387 1.66398,0.76998 -5.81877,-0.51676 0.88883,-0.50643 0.58912,-5.80326 -1.16272,-0.51677 4.87825,-0.59428 0.65629,2.8267 0.62529,-2.51664 4.72839,0.27389 -1.42627,0.49609 0.59428,5.68441 z"
         style="font-style:normal;font-variant:normal;font-weight:normal;font-stretch:normal;font-family:'Snap ITC';-inkscape-font-specification:'Snap ITC';stroke-width:0.26458332"
         id="path130" />
    </g>
    <g
       id="g488"
       transform="matrix(0.08819444,0,0,0.08819444,36.023137,150.43345)">
      <g
         id="g209"
         class="st0"
         style="display:none">
        <path
           id="path207"
           d="m 319.8,169.3 c 1.5,-14.2 13.7,-27.2 29.9,-31.9 -13.1,1.5 -27.3,-1.7 -36,-10 -8.7,-8.3 -10,-21.9 -1.4,-30.1 -12,6.7 -28.1,8.1 -41.4,3.4 -13.3,-4.6 -23.5,-15.1 -26.2,-26.9 -2,-8.8 0,-17.9 2,-26.7 -6.2,9.4 -17.6,17.3 -30.5,17.3 -12.9,0.1 -25.7,-10.2 -22.9,-20.7 -5.5,7.8 -11.4,15.9 -21,20.2 -9.5,4.3 -23.7,2.7 -28.2,-5.5 -1.6,10.8 -7.5,22 -19.1,27 -9,3.9 -21.5,2.2 -28,-3.8 5.7,11.4 4.3,25.3 -4.1,35.6 -9.9,12.2 -29.1,18.6 -46.4,15.6 14.7,7.2 28.5,17.7 32.1,31.5 3.7,13.8 -7.1,30.7 -24.1,31.7 13.6,3.1 28,7.4 35.6,17.2 7.6,9.8 2.9,26.4 -11.1,28 12.8,-2.6 27.4,3.9 31.9,14.2 4.1,9.5 -0.9,20.9 -10.9,26.5 18.6,-8.9 41,-17.1 59.6,-8.8 13.9,6.2 20.8,21.6 15.1,33.8 10.4,-10.6 23,-21.3 39.2,-23.5 12.8,-1.8 27.5,4.6 31.9,14.1 -0.3,-12.7 6.1,-25.5 17.5,-34 13.8,-10.3 34.4,-14 52,-9.2 -11.1,-7.8 -14.9,-22 -8.9,-33 6,-11 21.3,-18 35.7,-16.2 -14.6,-7 -23.8,-21.6 -22.3,-35.8 z"
           class="st1"
           inkscape:connector-curvature="0"
           style="display:inline;fill:#ed1c24" />
      </g>
      <g
         id="g351">
        <g
           id="g215">
          <g
             id="g213">
            <path
               id="path211"
               d="m 179.7,297.3 c -10.1,3.2 -20.3,6 -30.6,8.4 -10.7,2.5 -21.7,5 -32.8,5.1 C 96,311.1 79.9,297.2 60,296.1 c -5.8,-0.3 -5.8,8.7 0,9 9.9,0.5 18.9,5.1 27.9,8.8 9.8,4 19.6,6.3 30.2,5.9 21.5,-0.8 43.5,-7.4 64,-13.8 5.5,-1.7 3.1,-10.4 -2.4,-8.7 z"
               class="st2"
               inkscape:connector-curvature="0"
               style="fill:#42210b" />
          </g>
        </g>
        <g
           id="g221">
          <g
             id="g219">
            <path
               id="path217"
               d="m 322.2,194.8 c 17.9,-8 36,-18.5 44.3,-37.2 4.2,-9.3 6,-19.2 7.2,-29.3 1.5,-11.7 2.5,-23.4 3.7,-35.2 0.6,-5.8 -8.4,-5.7 -9,0 -1.1,10.3 -2.1,20.6 -3.3,30.9 -1.1,9.7 -2.5,19.7 -6.4,28.7 -7.5,17.5 -24.6,26.8 -41.2,34.2 -5.1,2.5 -0.6,10.3 4.7,7.9 z"
               class="st2"
               inkscape:connector-curvature="0"
               style="fill:#42210b" />
          </g>
        </g>
        <g
           id="g225">
          <ellipse
             id="ellipse223"
             ry="33.700001"
             rx="65.5"
             cy="392.89999"
             cx="241.2"
             class="st2"
             transform="matrix(0.5541,-0.8324,0.8324,0.5541,-219.4917,376.0051)"
             style="fill:#42210b" />
        </g>
        <g
           id="g231">
          <g
             id="g229">
            <path
               id="path227"
               d="m 224.1,442.5 c 22,-11.5 38.7,-31 47.1,-54.3 2,-5.5 -6.7,-7.8 -8.7,-2.4 -7.6,21.1 -23.1,38.5 -43,48.9 -5.1,2.7 -0.6,10.4 4.6,7.8 z"
               class="st3"
               inkscape:connector-curvature="0"
               style="fill:#ffffff" />
          </g>
        </g>
        <g
           id="g235">
          <ellipse
             id="ellipse233"
             ry="32.900002"
             rx="63.900002"
             cy="316.79999"
             cx="397"
             class="st2"
             transform="matrix(0.9684,-0.2494,0.2494,0.9684,-66.4734,109.0276)"
             style="fill:#42210b" />
        </g>
        <g
           id="g241">
          <g
             id="g239">
            <path
               id="path237"
               d="m 363.8,341.5 c 28.3,7 58.7,-0.8 80.2,-20.5 4.3,-3.9 -2.1,-10.3 -6.4,-6.4 -19.1,17.5 -46.4,24.4 -71.5,18.2 -5.6,-1.3 -8,7.3 -2.3,8.7 z"
               class="st3"
               inkscape:connector-curvature="0"
               style="fill:#ffffff" />
          </g>
        </g>
        <path
           id="path243"
           d="m 156.9,96 c -25.4,4.5 -32.9,20.2 -45,46.9 -20.2,44.4 2,90.3 5.6,97.5 18.4,36.5 42.3,36.8 60,80.6 8.6,21.2 4.6,25.2 13.1,37.5 20.4,29.2 63.7,36.1 91.9,33.8 40.3,-3.3 91.5,-28.8 108.8,-82.5 17.1,-53.2 -6,-112.1 -41.2,-131.2 C 324.8,164.9 305.2,178.1 278.9,158 257.3,141.5 260.5,124.9 241.4,109.2 227.9,98.1 203.7,87.7 156.9,96 Z"
           class="st4"
           inkscape:connector-curvature="0"
           style="fill:#c69c6d;stroke:#8c6239;stroke-width:5;stroke-miterlimit:10" />
        <ellipse
           id="ellipse245"
           ry="15.5"
           rx="21"
           cy="82.5"
           cx="376"
           class="st2"
           transform="matrix(0.6622,-0.7494,0.7494,0.6622,65.2068,309.6339)"
           style="fill:#42210b" />
        <g
           id="g251">
          <g
             id="g249">
            <path
               id="path247"
               d="m 379.8,75.3 c 0.8,0.2 -0.6,-0.4 -0.1,-0.1 0.2,0.1 0.3,0.2 0.5,0.3 0.4,0.2 -0.6,-0.7 -0.1,-0.1 0.1,0.1 0.7,0.8 0.2,0.2 -0.4,-0.5 0,0 0.1,0.1 0.4,0.7 0,0.2 0,-0.2 0,0.1 0.1,0.4 0.2,0.5 0.3,0.9 -0.1,-1 0,-0.1 0.1,2.3 2,4.6 4.5,4.5 2.3,-0.1 4.6,-2 4.5,-4.5 -0.3,-4.4 -3,-8.1 -7.3,-9.4 -2.2,-0.7 -5,0.8 -5.5,3.1 -0.7,2.6 0.6,4.9 3,5.7 z"
               class="st3"
               inkscape:connector-curvature="0"
               style="fill:#ffffff" />
          </g>
        </g>
        <ellipse
           id="ellipse253"
           ry="15.5"
           rx="21"
           cy="300.5"
           cx="54"
           class="st2"
           transform="matrix(0.9999,-0.01433736,0.01433736,0.9999,-4.303,0.8051)"
           style="fill:#42210b" />
        <g
           id="g259">
          <g
             id="g257">
            <path
               id="path255"
               d="m 52.2,297.5 c 1.1,-0.3 1.4,-0.4 2.5,0 0.8,0.3 1.3,0.7 2,1.7 1.5,1.9 4.8,1.6 6.4,0 1.9,-1.9 1.5,-4.4 0,-6.4 -3.1,-3.9 -8.6,-5.4 -13.3,-4 -5.5,1.7 -3.1,10.4 2.4,8.7 z"
               class="st3"
               inkscape:connector-curvature="0"
               style="fill:#ffffff" />
          </g>
        </g>
        <g
           id="g265">
          <g
             id="g263">
            <path
               id="path261"
               d="M 149.3,108.8 C 154.2,98 148,84.6 136.4,81.9 c -1.9,-0.4 -2.7,2.4 -0.8,2.9 9.6,2.3 15.3,13.5 11.2,22.5 -0.9,1.7 1.7,3.2 2.5,1.5 z"
               class="st2"
               inkscape:connector-curvature="0"
               style="fill:#42210b" />
          </g>
        </g>
        <g
           id="g271">
          <g
             id="g269">
            <path
               id="path267"
               d="m 141.2,112.3 c 2.4,-9.4 -5.4,-19.3 -15.2,-19 -1.9,0.1 -1.9,3.1 0,3 7.8,-0.2 14.2,7.6 12.3,15.2 -0.5,1.9 2.4,2.7 2.9,0.8 z"
               class="st2"
               inkscape:connector-curvature="0"
               style="fill:#42210b" />
          </g>
        </g>
        <g
           id="g277">
          <g
             id="g275">
            <path
               id="path273"
               d="m 132.6,118 c -1.1,-8.3 -10.9,-13.4 -18.2,-9.1 -1.7,1 -0.2,3.6 1.5,2.6 5.2,-3 12.9,0.4 13.7,6.5 0.2,1.9 3.2,1.9 3,0 z"
               class="st2"
               inkscape:connector-curvature="0"
               style="fill:#42210b" />
          </g>
        </g>
        <path
           id="path279"
           d="m 215.5,166.5 34,-73 c 0,0 35,0 46,21 7.5,14.3 8,39 8,39 z"
           class="st5"
           inkscape:connector-curvature="0"
           style="fill:#ffffff;stroke:#42210b;stroke-width:3;stroke-miterlimit:10" />
        <path
           id="path281"
           d="m 208.2,170.5 -79.5,-12.7 c 0,0 -19.6,29 -8.4,49.9 7.6,14.2 27.8,28.5 27.8,28.5 z"
           class="st5"
           inkscape:connector-curvature="0"
           style="fill:#ffffff;stroke:#42210b;stroke-width:3;stroke-miterlimit:10" />
        <path
           id="path283"
           d="m 210.5,164.5 33,-74 c 0,0 -2.5,-5.5 -8,-7 -5.5,-1.5 -12,0 -12,0 z"
           class="st2"
           inkscape:connector-curvature="0"
           style="fill:#42210b" />
        <path
           id="path285"
           d="m 207.4,165.3 -73.1,-35 c 0,0 -5.6,2.4 -7.2,7.8 -1.6,5.5 -0.3,12 -0.3,12 z"
           class="st2"
           inkscape:connector-curvature="0"
           style="fill:#42210b" />
        <path
           id="path287"
           d="M 215.5,166.5 234,127 c 0,0 17,-6 25.5,7.5 8.6,13.6 -3.5,25.5 -3.5,25.5 z"
           inkscape:connector-curvature="0" />
        <path
           id="path289"
           d="m 206.7,170.9 -29.6,32 c 0,0 -18,0.5 -22,-14.9 -4,-15.6 11.1,-23.2 11.1,-23.2 z"
           inkscape:connector-curvature="0" />
        <g
           id="g295">
          <g
             id="g293">
            <path
               id="path291"
               d="m 243.4,139.1 c -0.6,0.2 -0.7,0.3 -0.4,0.2 0.3,-0.1 0.2,-0.1 -0.5,0.1 0.7,0 -0.3,0 -0.4,-0.1 0.1,0 0.3,0.1 0.4,0.1 0.3,0.1 0.2,0 -0.4,-0.2 0,0 0.6,0.3 0.6,0.3 0.5,0.2 -0.9,-0.6 -0.1,-0.1 0.6,0.4 -0.3,-0.5 -0.1,-0.1 0.3,0.5 -0.3,-1 -0.1,-0.2 0.2,0.8 0,-1 0,-0.1 0,2.4 2.1,4.6 4.5,4.5 2.5,-0.1 4.5,-2 4.5,-4.5 0,-3 -1.6,-5.7 -4.1,-7.3 -2.6,-1.7 -5.6,-1.6 -8.4,-0.4 -2.2,0.9 -2.8,4.3 -1.6,6.2 1.4,2.2 3.7,2.6 6.1,1.6 z"
               class="st3"
               inkscape:connector-curvature="0"
               style="fill:#ffffff" />
          </g>
        </g>
        <g
           id="g301">
          <g
             id="g299">
            <path
               id="path297"
               d="m 173.5,176.4 c -0.5,-0.3 -0.1,0 0.2,0.1 -0.7,-0.6 0.3,0.5 0.1,0 -0.3,-0.5 0.4,0.8 0.1,0.2 -0.4,-0.8 0.2,0.2 0,0.1 0,0 0,-0.6 0,-0.6 -0.1,0.1 -0.1,1 0,0.3 -0.1,0.2 -0.1,0.3 -0.2,0.5 0.2,-0.3 0.2,-0.4 0,-0.1 -0.2,0.2 -0.2,0.3 -0.1,0.1 0.2,-0.2 0.1,-0.2 -0.3,0.2 1.9,-1.4 3,-4 1.6,-6.2 -1.2,-1.9 -4.1,-3.1 -6.2,-1.6 -2.4,1.7 -4,4.3 -3.9,7.4 0.1,3 1.6,5.7 4.1,7.3 2,1.2 5,0.5 6.2,-1.6 1.2,-2.1 0.6,-4.8 -1.6,-6.1 z"
               class="st3"
               inkscape:connector-curvature="0"
               style="fill:#ffffff" />
          </g>
        </g>
        <ellipse
           id="ellipse303"
           ry="68.5"
           rx="79.5"
           cy="255.5"
           cx="298.5"
           class="st6"
           transform="matrix(0.862,-0.5069,0.5069,0.862,-88.3186,186.5516)"
           style="fill:#ed1c24;stroke:#8c6239;stroke-width:5;stroke-miterlimit:10" />
        <g
           id="g309">
          <g
             id="g307">
            <path
               id="path305"
               d="m 173.6,109.8 c -2.1,2 -3.9,4.6 -3.6,7.6 0.3,3.5 2.8,6.6 6.6,6.7 6,0.2 11.5,-7.7 8.2,-13 -1,-1.7 -3.1,-3.1 -5.2,-3 -1.7,0.1 -3.1,0.8 -4.4,1.9 -2,1.8 -2.8,5.2 -1.9,7.7 2.4,6.6 11.8,5.9 13.8,-0.7 0.7,-2.5 -0.9,-5.6 -3.5,-6.2 -2.7,-0.6 -5.4,0.8 -6.2,3.5 0.6,-2.1 3.1,-2.6 4.6,-1 0.8,0.9 1,1.8 0.8,2.8 0.2,-0.5 0.1,-0.4 -0.1,0.3 -0.4,0.7 -1,1.2 -1.8,1.4 -0.9,0 -1.8,0 -2.7,0 -1.8,-0.6 -2.5,-1.6 -2.3,-3.1 -0.1,-0.4 -0.1,-0.7 0.1,-1 0.2,-0.3 0.1,-0.3 -0.1,0.1 0.1,-0.1 0.2,-0.2 0.3,-0.4 -0.2,0.3 -0.5,0.5 -0.7,0.8 -0.1,0.1 -0.2,0.2 -0.3,0.3 -0.3,0.2 -0.2,0.2 0.1,-0.1 1.3,0.2 2.6,0.4 3.9,0.6 0.2,0.4 0.5,0.9 0.7,1.3 0.2,0.6 -0.2,0.9 -0.2,1.4 0,0.4 0.4,-0.5 -0.1,0.1 0.3,-0.4 0.6,-0.7 1,-1 1.9,-1.8 2,-5.3 0,-7.1 -1.9,-1.8 -5,-1.9 -7,0.1 z"
               class="st7"
               inkscape:connector-curvature="0"
               style="fill:#a67c52" />
          </g>
        </g>
        <g
           id="g315">
          <g
             id="g313">
            <path
               id="path311"
               d="m 151.2,248.6 c -5.7,7 1.7,16.9 10,13.3 3.4,-1.5 6.3,-5 6.3,-8.9 0,-4.2 -2.7,-7.6 -7,-7.8 -3.1,-0.1 -5.8,3.3 -4.8,6.3 1.2,3.4 3.7,6.1 7.3,7 2.6,0.6 5.4,-0.8 6.2,-3.5 0.7,-2.5 -0.9,-5.5 -3.5,-6.2 -1.7,-0.4 0,0.1 -0.2,0.1 -0.4,0 -0.4,-0.8 -0.1,-0.1 -1.6,2.1 -3.2,4.2 -4.8,6.3 -2.4,-0.1 -2.8,-1.1 -3,-2.6 0.1,0.7 -0.1,0.2 0.1,-0.1 0.7,-0.9 -0.5,0.5 0,0 -0.5,0.5 -0.3,0.1 -0.2,0.2 0.1,0 0.6,0 0.7,0 0.4,0.1 0.5,0.4 0.8,0.6 0.2,0.3 0.2,0.2 -0.1,-0.2 0.1,0.1 0.1,0.3 0.2,0.4 0,1 0.1,1.1 -0.7,2.1 1.7,-2.1 2,-5 0,-7.1 -1.9,-1.6 -5.5,-1.9 -7.2,0.2 z"
               class="st7"
               inkscape:connector-curvature="0"
               style="fill:#a67c52" />
          </g>
        </g>
        <g
           id="g321">
          <g
             id="g319">
            <path
               id="path317"
               d="m 204.1,205.7 c 0.8,4.8 5.3,8.6 10.1,8.6 5.1,0 9.5,-3.9 10.3,-8.9 0.7,-4.4 -0.2,-12.1 -5.3,-13.6 -2.7,-0.8 -5.2,0.5 -7,2.4 -1.1,1.2 -1.5,1.7 -3.1,1.2 0.7,2.8 1.5,5.6 2.2,8.4 0.2,-0.2 -0.5,0.2 -0.5,0.2 6.3,1.4 8.9,-8.2 2.7,-9.6 -3.5,-0.8 -6.6,0 -9.3,2.4 -3,2.6 -1.1,7.2 2.2,8.4 2.6,0.9 5.5,0.8 8,-0.2 1.3,-0.5 2.4,-1.2 3.4,-2.1 0.4,-0.3 0.7,-0.6 1,-1 0.2,-0.3 0.4,-0.5 0.6,-0.7 0.4,-0.4 0.3,-0.4 -0.5,0.3 -0.9,0 -1.8,0 -2.7,0 0.2,0.1 0.3,0.1 0.5,0.2 -0.7,-0.4 -1.5,-0.9 -2.2,-1.3 0.1,0.2 0.3,0.3 0.4,0.5 -0.4,-0.7 -0.9,-1.5 -1.3,-2.2 0.4,1.2 0.8,2.5 1,3.7 0,0.4 0,0.8 0,1.2 0,0.5 -0.5,0.9 0,0.4 -0.8,0.6 -0.9,0.2 -1.1,-0.9 -0.4,-2.7 -3.8,-4.1 -6.2,-3.5 -2.6,0.7 -3.6,3.4 -3.2,6.1 z"
               class="st7"
               inkscape:connector-curvature="0"
               style="fill:#a67c52" />
          </g>
        </g>
        <g
           id="g327">
          <g
             id="g325">
            <path
               id="path323"
               d="m 265.9,179.6 c 0.2,0.4 0.5,0.9 0.7,1.3 0.6,1.1 1.8,2 3,2.3 1.2,0.3 2.8,0.2 3.9,-0.5 1.1,-0.7 2,-1.7 2.3,-3 0.3,-1.4 0.1,-2.6 -0.5,-3.9 -0.2,-0.4 -0.5,-0.9 -0.7,-1.3 -0.6,-1.1 -1.8,-2 -3,-2.3 -1.2,-0.3 -2.8,-0.2 -3.9,0.5 -1.1,0.7 -2,1.7 -2.3,3 -0.3,1.4 -0.1,2.6 0.5,3.9 z"
               class="st7"
               inkscape:connector-curvature="0"
               style="fill:#a67c52" />
          </g>
        </g>
        <g
           id="g333">
          <g
             id="g331">
            <path
               id="path329"
               d="m 200.4,295.8 c -6.1,1.6 -8.1,8.6 -5,13.7 2.8,4.7 9.1,7.2 14.3,5.4 4.9,-1.7 7.8,-7.1 6.3,-12.2 -0.8,-2.7 -2.7,-4.8 -5.3,-5.8 -1.4,-0.5 -2.8,-0.7 -4.2,-0.8 -0.1,0 -0.9,-0.1 -0.9,-0.1 0.2,-0.4 1.2,2.5 0.9,0.7 0,0.9 0,1.8 0,2.7 -0.1,0.1 -0.1,0.1 -0.2,0.2 3.1,-5.6 -5.5,-10.7 -8.6,-5 -1.7,3 -1.1,6.6 1.4,9 1.3,1.2 2.8,2 4.5,2.3 0.8,0.1 1.6,0.2 2.4,0.3 0.4,0 0.7,0 1.1,0.1 0.2,0.1 0.1,0.1 -0.2,-0.1 0,0.1 -0.6,-0.5 -0.6,-0.5 -0.1,-0.1 -0.1,-0.2 0,-0.3 0.1,-0.3 0.1,-0.1 -0.1,0.5 -0.3,-0.1 0.7,-0.2 -0.3,-0.3 -0.9,-0.1 -1.1,-0.6 -1.8,-0.9 0,0 -0.2,-0.3 -0.3,-0.3 0.3,0 -0.8,1.2 -0.8,1.2 6.3,-1.8 3.6,-11.4 -2.6,-9.8 z"
               class="st7"
               inkscape:connector-curvature="0"
               style="fill:#a67c52" />
          </g>
        </g>
        <g
           id="g339">
          <g
             id="g337">
            <path
               id="path335"
               d="m 244.8,355.3 c -4,-6.2 -11.2,-2.3 -12,3.9 -0.8,5.9 1.8,12 6.5,15.6 4.5,3.5 11.5,4.9 16.7,2.1 6.4,-3.3 5.4,-9.8 4.9,-15.9 -0.5,-6.3 -1.9,-12 -9.5,-12.1 -5.1,-0.1 -13.1,0.2 -14.5,6.4 -1.2,5.4 2.5,12.8 8.2,13.8 6.2,1.1 11.2,-5.5 7.8,-11 -2.2,-3.5 -8.1,-3.1 -9.1,1.2 -1.1,4.4 0.5,8 4.1,10.6 5.2,3.8 10.2,-4.8 5,-8.6 0.2,0.2 0.4,0.5 0.5,0.7 -3,0.4 -6.1,0.8 -9.1,1.2 -0.4,-0.7 3.4,-3.1 2.9,-4.8 -0.8,-2.6 -1.7,1.4 -1.9,1.1 0,0.1 5.2,-0.1 5.6,-0.4 0.7,0.1 0.8,-0.1 0.2,-0.6 -0.4,-0.7 -0.5,-0.8 -0.4,-0.3 -0.2,0.3 0.2,1.9 0.2,2.3 0.2,2 0.3,4 0.5,5.9 0.1,1.6 0.4,1.7 -1.1,2 -1.3,0.2 -2.9,-0.3 -4,-0.9 -1.4,-0.8 -2.5,-2 -3.1,-3.5 -0.3,-0.7 -0.4,-1.3 -0.5,-2 0,-0.3 -0.1,-0.7 0,-1 0.2,-1.9 -1.1,-1.5 -3.8,1.2 -1,-0.8 -2,-1.5 -3,-2.3 0.1,0.2 0.2,0.4 0.4,0.6 3.3,5.2 12,0.2 8.5,-5.2 z"
               class="st7"
               inkscape:connector-curvature="0"
               style="fill:#a67c52" />
          </g>
        </g>
        <g
           id="g345">
          <g
             id="g343">
            <path
               id="path341"
               d="m 336.5,337.4 c -2.4,-1.5 -5.1,-2.5 -7.9,-1.8 -2.7,0.7 -4.9,3.2 -5.3,6 -0.9,6.4 6.3,8.3 11.2,8.4 4.8,0.1 10.6,-2.4 10.9,-7.9 0.2,-5.6 -5.5,-9.6 -10.6,-6.9 -5.7,3 -0.7,11.6 5,8.6 -0.1,0.1 -0.2,0.1 -0.3,0.2 -0.9,0 -1.8,0 -2.7,0 -2.1,-0.4 -1.4,-4.8 -0.3,-4.3 0,0 -1.3,0.3 -1.3,0.3 -0.6,0 -1.2,0 -1.8,-0.1 -0.5,-0.1 -1,-0.2 -1.5,-0.4 -1.2,-0.5 -1,-0.2 0.6,0.7 0.2,0.8 0.5,1.7 0.7,2.5 -3.4,1.1 -4.4,1.9 -2.8,2.7 0.4,0.2 0.7,0.4 1.1,0.7 5.4,3.5 10.4,-5.2 5,-8.7 z"
               class="st7"
               inkscape:connector-curvature="0"
               style="fill:#a67c52" />
          </g>
        </g>
        <path
           id="path347"
           d="M 224.3,256.5 252,273 v -40 l 32,20 v -38 l 28,17 4,-28 23,12 -3,-24 c 0,0 -14,-8 -35.5,-6.4 -11.6,0.9 -24.3,6.8 -33.5,11.4 -14,7 -23.7,18.9 -31.2,29.1 -8.8,11.9 -11.5,30.4 -11.5,30.4 z"
           class="st3"
           inkscape:connector-curvature="0"
           style="fill:#ffffff" />
        <path
           id="path349"
           d="m 372.9,248.9 -28.8,-14.5 2.9,39.9 -33.3,-17.7 2.7,37.9 -29.1,-15 -2,28.2 -23.8,-10.3 4.7,23.7 c 0,0 14.5,7 35.9,3.8 11.5,-1.7 23.7,-8.5 32.6,-13.8 13.5,-8 22.3,-20.5 29,-31.2 7.8,-12.4 9.2,-31 9.2,-31 z"
           class="st3"
           inkscape:connector-curvature="0"
           style="fill:#ffffff" />
      </g>
      <g
         id="g357">
        <g
           id="g355">
          <path
             id="path353"
             d="m 235.2,121.6 c 8.5,-3.1 23.2,-0.1 27.8,8.4 2.3,4.4 4.5,9.9 4.5,14.9 0.1,5.5 -2.7,10.5 -5.3,15.3 -1.5,2.8 2.8,5.4 4.3,2.5 3.1,-5.8 6.3,-11.9 6,-18.7 -0.3,-6 -2.8,-12.8 -5.9,-17.9 -6,-9.5 -22.6,-13.1 -32.7,-9.4 -3,1.1 -1.7,6 1.3,4.9 z"
             class="st8"
             inkscape:connector-curvature="0"
             style="fill:#ed1c24" />
        </g>
      </g>
      <g
         id="g363">
        <g
           id="g361">
          <path
             id="path359"
             d="m 241.1,110.5 c 11.6,-2.3 25.6,2.3 32.2,12.4 6.6,10.2 6.1,22.8 3.1,34.2 -1.3,5 6.4,7.1 7.7,2.1 3.8,-14.3 3.8,-30.3 -5.5,-42.6 -8.9,-11.7 -25.5,-16.6 -39.6,-13.8 -5.1,1 -2.9,8.7 2.1,7.7 z"
             class="st8"
             inkscape:connector-curvature="0"
             style="fill:#ed1c24" />
        </g>
      </g>
      <g
         id="g369">
        <g
           id="g367">
          <path
             id="path365"
             d="m 245.4,97.5 c 7.8,-1.8 15.5,0 22.9,2.8 7.2,2.7 15,6.1 20.3,11.8 10.7,11.7 9.5,29.3 8.7,44 -0.3,6.4 9.7,6.4 10,0 1,-17.9 1.2,-38.5 -12.7,-52.1 -6.4,-6.3 -15.3,-10.2 -23.6,-13.3 -9.1,-3.4 -18.6,-4.9 -28.2,-2.8 -6.3,1.3 -3.7,11 2.6,9.6 z"
             class="st8"
             inkscape:connector-curvature="0"
             style="fill:#ed1c24" />
        </g>
      </g>
      <g
         id="g375">
        <g
           id="g373">
          <path
             id="path371"
             d="m 155.8,158.5 c -13.1,4.8 -14.2,21.6 -10.1,33.1 4.3,12 15.2,20.6 28.2,20.5 3.2,0 3.2,-5 0,-5 -9.9,0.1 -18.6,-5.9 -22.6,-14.9 -3.9,-8.6 -5.2,-24.8 5.8,-28.9 3.1,-1 1.8,-5.9 -1.3,-4.8 z"
             class="st8"
             inkscape:connector-curvature="0"
             style="fill:#ed1c24" />
        </g>
      </g>
      <g
         id="g381">
        <g
           id="g379">
          <path
             id="path377"
             d="m 164.1,216.5 c -11.4,-2.2 -18.8,-11.4 -22.7,-21.9 -3.6,-9.6 -7.7,-25.3 1.2,-33.1 3.9,-3.4 -1.8,-9 -5.7,-5.7 -11.3,9.9 -7.9,28.5 -3.3,40.9 4.8,13 14.1,24.7 28.3,27.5 5.1,1 7.2,-6.7 2.2,-7.7 z"
             class="st8"
             inkscape:connector-curvature="0"
             style="fill:#ed1c24" />
        </g>
      </g>
      <g
         id="g387">
        <g
           id="g385">
          <path
             id="path383"
             d="m 152,231.7 c -27.3,-13.3 -38.1,-46.5 -23.3,-73.2 3.1,-5.6 -5.5,-10.7 -8.6,-5 -17.3,31.2 -5.3,71.1 26.9,86.9 5.7,2.7 10.8,-5.9 5,-8.7 z"
             class="st8"
             inkscape:connector-curvature="0"
             style="fill:#ed1c24" />
        </g>
      </g>
    </g>
    <flowRoot
       xml:space="preserve"
       id="flowRoot490"
       style="font-style:normal;font-variant:normal;font-weight:normal;font-stretch:normal;font-size:40px;line-height:1.25;font-family:Broadway;-inkscape-font-specification:Broadway;letter-spacing:0px;word-spacing:0px;fill:#000000;fill-opacity:1;stroke:none"
       transform="scale(0.26458333)"><flowRegion
         id="flowRegion492"><rect
           id="rect494"
           width="70"
           height="53.57143"
           x="105.35714"
           y="631.09113" /></flowRegion><flowPara
         id="flowPara496" /></flowRoot>    <path
       style="fill:#ed1c24;fill-opacity:1;stroke-width:0.35714287"
       d="m 349.3441,668.04233 c -1.15305,-3.00269 -2.21473,-5.58897 -2.35927,-5.74728 -0.14455,-0.15831 -1.29043,2.03142 -2.54641,4.86608 l -2.28358,5.15393 -1.96429,-0.12983 c -1.08035,-0.0714 -3.41071,-0.23525 -5.17857,-0.36411 l -3.21428,-0.23429 1.50715,-0.67153 c 1.33389,-0.59433 1.48736,-0.78343 1.33494,-1.64483 -0.17781,-1.0048 -3.02067,-21.74929 -3.02067,-22.04192 0,-0.0904 -0.60267,-0.47509 -1.33928,-0.85494 -1.30203,-0.67141 -1.31445,-0.69607 -0.44643,-0.88618 0.49107,-0.10756 4.02679,-0.44798 7.85714,-0.7565 3.83036,-0.30852 7.60715,-0.65015 8.39286,-0.75918 l 1.42857,-0.19824 -2.05369,1.3073 c -1.19105,0.75817 -2.12775,1.63324 -2.22999,2.08326 -0.46192,2.03325 -2.69421,16.0923 -2.6,16.37493 0.059,0.17693 2.0905,-2.57819 4.51448,-6.12249 2.42399,-3.54431 4.52462,-6.51673 4.66808,-6.60539 0.14345,-0.0887 1.53168,2.72461 3.08494,6.25171 1.55327,3.52711 2.92271,6.41292 3.04321,6.41292 0.12049,0 0.32597,-2.20982 0.45661,-4.91071 0.13064,-2.7009 0.33391,-6.4375 0.45171,-8.30358 l 0.21418,-3.39285 -1.3819,-0.79537 -1.38191,-0.79537 1.07142,-0.0136 c 2.35376,-0.0299 14.67291,0.83268 15.10992,1.05793 0.30464,0.15702 -0.0254,0.46281 -0.94909,0.87934 l -1.41616,0.63859 -3.62772,10.71123 c -1.99524,5.89117 -3.52561,10.81544 -3.40082,10.9428 0.1248,0.12737 1.20729,0.47765 2.40554,0.77841 l 2.17864,0.54682 -6.40015,1.17405 c -3.52009,0.64573 -6.72158,1.24926 -7.11444,1.34118 -0.62813,0.14697 -0.96717,-0.4914 -2.81074,-5.2923 z"
       id="path498"
       inkscape:connector-curvature="0"
       transform="scale(0.26458333)" />
    <path
       style="fill:#42210b;fill-opacity:1;stroke-width:0.35714287"
       d="m 437.6529,673.35811 0.81491,-1.31855 -2.68279,-3.29976 c -4.01397,-4.93709 -4.95981,-5.89311 -6.07538,-6.14073 l -1.01664,-0.22567 0.23593,3.4976 0.23593,3.49761 2.02174,1.93426 2.02173,1.93426 -1.77675,-0.20788 c -0.97721,-0.11434 -4.4603,-0.4935 -7.7402,-0.84258 l -5.96345,-0.6347 1.23131,-0.8367 c 0.67722,-0.46018 1.23236,-0.87108 1.23365,-0.91311 0.001,-0.042 0.64309,-4.81748 1.42623,-10.61212 0.78315,-5.79465 1.42495,-10.63773 1.42624,-10.7624 10e-4,-0.12468 -1.21743,-0.76273 -2.70825,-1.4179 -1.49083,-0.65517 -2.57565,-1.23265 -2.41072,-1.2833 1.25797,-0.38629 16.50844,-1.89355 19.15896,-1.89355 5.4703,0 9.00142,1.56321 10.67861,4.72736 1.15555,2.18005 1.15179,6.58639 -0.007,8.77427 -1.05072,1.98299 -3.3205,3.58639 -6.7145,4.74321 l -2.7092,0.92342 5.39318,3.6644 c 2.96625,2.01542 5.39318,3.71601 5.39318,3.77909 0,0.0631 -2.53125,0.95524 -5.625,1.98259 -3.09375,1.02734 -5.857,1.95375 -6.14057,2.05867 -0.35332,0.13073 -0.25912,-0.22418 0.29935,-1.12779 z m -4.35325,-16.55138 c 0.95939,-1.46421 0.75685,-3.51852 -0.47462,-4.81401 -0.56504,-0.59441 -1.45887,-1.3062 -1.9863,-1.58176 -1.17448,-0.61361 -1.22159,-0.50375 -1.56461,3.64826 -0.21537,2.60698 -0.17153,2.94468 0.42751,3.29271 1.27497,0.74076 2.91862,0.4917 3.59802,-0.5452 z"
       id="path504"
       inkscape:connector-curvature="0"
       transform="scale(0.26458333)" />
    <path
       style="fill:#c69c6d;fill-opacity:1;stroke-width:0.35714287"
       d="m 491.44055,671.91464 c -7.56147,-0.69989 -8.12409,-0.79839 -7.07939,-1.23938 0.62419,-0.26348 1.36314,-0.74563 1.6421,-1.07143 0.35261,-0.41182 0.80093,-3.64019 1.47096,-10.59237 0.53006,-5.5 1.04147,-10.36857 1.13645,-10.81906 0.14819,-0.70283 -0.0949,-0.93837 -1.713,-1.65971 -1.71157,-0.76302 -1.80325,-0.85979 -0.99283,-1.04796 2.18346,-0.50698 16.21756,-2.00259 16.44055,-1.75206 0.13647,0.15334 0.60421,1.88594 1.03941,3.85022 1.28799,5.81342 1.48442,6.45716 1.79347,5.87756 0.15262,-0.28623 0.73711,-2.42536 1.29887,-4.75363 l 1.02137,-4.23322 1.97102,0.20191 c 1.08406,0.11105 4.37697,0.31169 7.31757,0.44586 2.9406,0.13418 5.7301,0.34654 6.19889,0.47191 0.72645,0.19428 0.55655,0.3212 -1.15011,0.85918 -1.67384,0.52763 -2.00247,0.76698 -2.00247,1.45846 0,1.04092 2.11439,21.02143 2.23359,21.10689 0.0483,0.0346 1.1218,0.6383 2.38553,1.34147 l 2.29769,1.27848 -4.0834,-0.18303 c -2.24588,-0.10067 -7.27176,-0.2898 -11.16863,-0.42029 l -7.08522,-0.23726 1.90055,-1.08309 1.90056,-1.08309 1.868,-8.55977 c 1.02741,-4.70787 1.82637,-8.70237 1.77547,-8.87666 -0.0509,-0.1743 -2.00167,2.84316 -4.33503,6.70545 -2.33337,3.86229 -4.36327,6.89776 -4.51088,6.74547 -0.24273,-0.2504 -5.37316,-11.06435 -6.6307,-13.9762 -0.28487,-0.65962 -0.59868,-1.11858 -0.69735,-1.01991 -0.14797,0.14797 2.64857,20.67422 2.83959,20.84222 0.0331,0.0291 1.10487,0.53795 2.38166,1.1307 l 2.32143,1.07774 -1.78572,-0.0125 c -0.98214,-0.007 -5.48214,-0.35469 -10,-0.77286 z"
       id="path506"
       inkscape:connector-curvature="0"
       transform="scale(0.26458333)" />
    <path
       style="fill:#c69c6d;fill-opacity:1;stroke-width:0.35714287"
       d="m 314.83341,672.56708 c 0,-0.10691 0.80357,-1.25588 1.78571,-2.55326 0.98215,-1.29738 1.78572,-2.52526 1.78572,-2.72861 0,-0.20336 -0.25756,-1.28766 -0.57234,-2.40956 l -0.57235,-2.03981 -2.19551,0.15927 c -4.53131,0.32871 -4.31112,0.20347 -5.36197,3.04975 l -0.94338,2.5552 1.16206,0.99476 c 0.73858,0.63225 0.96683,1.00376 0.62635,1.01945 -0.29465,0.0136 -3.50893,0.2566 -7.14286,0.54005 -3.63393,0.28345 -7.23885,0.51995 -8.01093,0.52554 l -1.40379,0.0102 1.93358,-1.44265 1.93359,-1.44265 2.95234,-11.49051 c 1.6238,-6.31978 2.95078,-11.6572 2.94885,-11.86092 -0.002,-0.20373 -0.6046,-0.73453 -1.33928,-1.17956 l -1.33579,-0.80915 9.82143,0.22675 c 5.40178,0.12471 10.02739,0.33734 10.27913,0.47251 0.27278,0.14647 -0.34048,0.49737 -1.51785,0.86851 -1.08656,0.3425 -1.97316,0.6547 -1.97022,0.69377 0.003,0.0391 2.13241,4.81211 4.73215,10.60675 l 4.72679,10.53572 1.69486,0.50894 1.69487,0.50894 -7.7663,2.42888 c -8.74429,2.73474 -7.94486,2.50817 -7.94486,2.25171 z m -2.01348,-14.78869 c 1.11481,-0.38355 2.16767,-0.78435 2.33971,-0.89067 0.28202,-0.17431 -2.02559,-7.37323 -2.5229,-7.87055 -0.16587,-0.16587 -2.80333,8.54947 -2.80333,9.26345 0,0.35931 0.94365,0.20062 2.98652,-0.50223 z"
       id="path508"
       inkscape:connector-curvature="0"
       transform="scale(0.26458333)" />
  </g>
  <style
     id="style205"
     type="text/css">
	.st0{display:none;}
	.st1{display:inline;fill:#ED1C24;}
	.st2{fill:#42210B;}
	.st3{fill:#FFFFFF;}
	.st4{fill:#C69C6D;stroke:#8C6239;stroke-width:5;stroke-miterlimit:10;}
	.st5{fill:#FFFFFF;stroke:#42210B;stroke-width:3;stroke-miterlimit:10;}
	.st6{fill:#ED1C24;stroke:#8C6239;stroke-width:5;stroke-miterlimit:10;}
	.st7{fill:#A67C52;}
	.st8{fill:#ED1C24;}
</style>
</svg>
